<?xml version="1.0" encoding="iso-8859-1"?>
<!-- Uploaded to: SVG Repo, www.svgrepo.com, Generator: SVG Repo Mixer Tools -->
<!DOCTYPE svg PUBLIC "-//W3C//DTD SVG 1.1//EN" "http://www.w3.org/Graphics/SVG/1.1/DTD/svg11.dtd">
<svg fill="#000000" version="1.1" id="Capa_1" xmlns="http://www.w3.org/2000/svg" xmlns:xlink="http://www.w3.org/1999/xlink" 
	 width="800px" height="800px" viewBox="0 0 110.312 110.311"
	 xml:space="preserve">
<g>
	<g>
		<path d="M89.646,17.665c-0.004-0.091-0.024-0.179-0.063-0.259c-0.003-0.007-0.004-0.013-0.007-0.02
			c-0.043-0.082-0.105-0.15-0.182-0.209c-0.008-0.007-0.012-0.019-0.021-0.025c-0.008-0.006-0.018-0.006-0.025-0.011
			c-0.017-0.01-0.028-0.025-0.045-0.034l-8.121-4.396c-0.164-0.088-0.356-0.105-0.532-0.046l-13.114,4.396
			c-0.036,0.012-0.066,0.033-0.1,0.05c-0.008,0.005-0.021,0.003-0.029,0.009c-0.006,0.003-0.007,0.01-0.014,0.013
			c-0.086,0.054-0.155,0.127-0.209,0.212c-0.008,0.015-0.016,0.029-0.024,0.044c-0.04,0.077-0.071,0.158-0.079,0.248
			c-0.001,0.015,0.002,0.028,0.002,0.043c0,0.006-0.005,0.011-0.005,0.018v32.137l-1.133-0.613
			c-0.175-0.095-0.382-0.107-0.565-0.033l-6.604,2.621V37.964c0-0.012-0.009-0.022-0.009-0.035
			c-0.004-0.089-0.023-0.176-0.062-0.254c-0.003-0.007-0.004-0.014-0.008-0.021c-0.043-0.083-0.107-0.152-0.182-0.21
			c-0.008-0.007-0.012-0.018-0.021-0.024c-0.007-0.005-0.018-0.005-0.023-0.01c-0.018-0.011-0.031-0.026-0.047-0.035l-8.123-4.396
			c-0.163-0.088-0.356-0.105-0.532-0.046l-13.114,4.396c-0.036,0.012-0.066,0.033-0.099,0.05c-0.009,0.005-0.02,0.003-0.029,0.008
			c-0.006,0.003-0.008,0.01-0.013,0.013c-0.086,0.054-0.155,0.127-0.208,0.212c-0.01,0.015-0.018,0.028-0.026,0.044
			c-0.04,0.076-0.071,0.158-0.079,0.247c-0.001,0.015,0.003,0.028,0.002,0.042c0,0.006-0.004,0.011-0.004,0.018v16.804L34.76,53.99
			c-0.163-0.088-0.356-0.105-0.532-0.046L21.114,58.34c-0.036,0.012-0.066,0.032-0.099,0.05c-0.009,0.005-0.02,0.003-0.029,0.008
			c-0.006,0.003-0.007,0.009-0.013,0.013c-0.087,0.055-0.156,0.127-0.209,0.212c-0.009,0.016-0.018,0.028-0.026,0.044
			c-0.04,0.077-0.071,0.158-0.079,0.247c-0.001,0.015,0.002,0.028,0.002,0.042c0,0.007-0.004,0.012-0.004,0.019v46.196
			c0,0.244,0.133,0.47,0.347,0.587l8.122,4.471c0.011,0.006,0.023,0.004,0.035,0.009c0.091,0.044,0.188,0.074,0.289,0.074
			c0.073,0,0.146-0.012,0.216-0.036l13.114-4.471c0.271-0.093,0.454-0.348,0.454-0.636v-1.952l1.432,0.788
			c0.011,0.006,0.024,0.003,0.036,0.009c0.091,0.044,0.188,0.074,0.288,0.074c0.073,0,0.146-0.013,0.216-0.036l13.114-4.471
			c0.271-0.093,0.454-0.348,0.454-0.635V97.13l1.535,0.846c0.012,0.006,0.025,0.004,0.037,0.009c0.09,0.043,0.188,0.074,0.287,0.074
			c0.073,0,0.146-0.012,0.217-0.036l13.113-4.47c0.271-0.094,0.455-0.349,0.455-0.636V91.96l1.077,0.724
			c0.036,0.023,0.076,0.038,0.115,0.054c0.021,0.008,0.039,0.022,0.06,0.028c0.064,0.021,0.133,0.031,0.199,0.031
			c0.073,0,0.146-0.013,0.217-0.035L89.2,88.291c0.271-0.092,0.454-0.347,0.454-0.635V17.697
			C89.653,17.685,89.646,17.676,89.646,17.665z M28.779,108.508l-6.781-3.732V60.11l6.781,3.732V108.508z M29.513,62.716l-4.1-2.258
			l-2.423-1.333l11.388-3.816l6.517,3.527l-5.784,1.972L29.513,62.716z M41.892,101.744c-0.095,0.19-0.085,0.399,0,0.579v2.369
			l-11.772,4.014V63.926l6.07-2.069l5.702-1.943V101.744z M44.318,102.285l-1.085-0.598V58.975c0-0.011-0.007-0.021-0.008-0.032
			c-0.005-0.092-0.024-0.179-0.063-0.26c-0.003-0.005-0.004-0.012-0.007-0.019c-0.043-0.083-0.108-0.151-0.183-0.211
			c-0.008-0.007-0.011-0.017-0.02-0.022c-0.007-0.005-0.017-0.005-0.024-0.01c-0.017-0.012-0.03-0.025-0.047-0.035l-5.345-2.894
			V39.098l6.781,3.732L44.318,102.285L44.318,102.285z M45.052,41.704l-6.523-3.59l11.388-3.817l6.517,3.527l-4.875,1.662
			L45.052,41.704z M57.431,98.469l-11.771,4.013V42.914l11.771-4.013V98.469z M59.964,96.256l-1.189-0.654V58.304l1.189,0.745
			V96.256z M60.718,57.94l-1.944-1.218v-3.471l6.808-2.701l6.498,3.518L60.718,57.94z M73.076,92.441l-11.772,4.013V59.157
			l11.772-4.013V92.441z M75.198,90.872l-0.779-0.522V54.207c0-0.012-0.009-0.022-0.01-0.034c-0.004-0.09-0.023-0.176-0.062-0.256
			c-0.002-0.006-0.004-0.014-0.008-0.021c-0.043-0.083-0.106-0.152-0.182-0.211c-0.008-0.007-0.012-0.018-0.021-0.023
			c-0.006-0.005-0.017-0.005-0.023-0.01c-0.016-0.011-0.029-0.026-0.046-0.035l-5.647-3.057V18.832l6.779,3.732V90.872z
			 M75.933,21.438l-1.463-0.806l-5.06-2.785l11.388-3.817l6.518,3.528L75.933,21.438z M88.312,87.179l-11.773,4.013V22.647
			l11.773-4.013V87.179z"/>
		<path d="M23.311,47.72c0.187,0.121,0.402,0.185,0.624,0.185c0.392,0,0.752-0.196,0.964-0.524l15.513-23.922l16.33,3.557
			c0.44,0.096,0.916-0.088,1.177-0.454L74.556,3.34l2.021,7.082c0.119,0.42,0.502,0.694,0.918,0.694
			c0.087,0,0.175-0.012,0.263-0.037c0.508-0.145,0.803-0.674,0.657-1.182l-2.626-9.203c-0.145-0.508-0.673-0.803-1.182-0.657
			c-0.002,0-0.003,0.002-0.006,0.003c-0.162-0.038-0.332-0.049-0.502,0.006L64.06,3.273c-0.504,0.161-0.779,0.7-0.618,1.203
			c0.13,0.405,0.506,0.664,0.909,0.664c0.098,0,0.195-0.015,0.294-0.046l7.571-2.434L56.491,24.61l-16.368-3.565
			c-0.462-0.099-0.95,0.103-1.206,0.499L22.971,46.131C22.627,46.662,22.779,47.375,23.311,47.72z"/>
	</g>
</g>
</svg>